<svg width="14" height="14" viewBox="0 0 14 14" fill="none" xmlns="http://www.w3.org/2000/svg">
<path d="M9.1875 11.8125C9.1875 13.0187 8.20619 14 7 14C5.79381 14 4.8125 13.0187 4.8125 11.8125C4.8125 10.6063 5.79381 9.625 7 9.625C8.20619 9.625 9.1875 10.6063 9.1875 11.8125ZM5.0657 0.689035L5.43758 8.12654C5.45505 8.4758 5.74331 8.75 6.09301 8.75H7.90699C8.25669 8.75 8.54495 8.4758 8.56242 8.12654L8.9343 0.689035C8.95303 0.31418 8.65419 0 8.27887 0H5.72113C5.34581 0 5.04697 0.31418 5.0657 0.689035Z" fill="#D10000"/>
</svg>
