<svg width="82" height="82" viewBox="0 0 82 82" fill="none" xmlns="http://www.w3.org/2000/svg">
<path d="M62.6 80.9999H19.4C14.52 80.9999 9.8399 79.065 6.38924 75.6209C2.93857 72.1768 1 67.5056 1 62.635C1.00115 58.0994 2.6838 53.7247 5.72381 50.3536L33.7238 19.2891H48.2762L76.2762 50.3536C79.3162 53.7247 80.9988 58.0994 81 62.635C81 67.5056 79.0614 72.1768 75.6108 75.6209C72.1601 79.065 67.48 80.9999 62.6 80.9999Z" stroke="white" stroke-width="2" stroke-miterlimit="10" stroke-linecap="square"/>
<path d="M55.5529 1.15209L54.0672 8.75663C53.436 11.7448 51.7915 14.4242 49.4111 16.3429C47.0307 18.2616 44.0601 19.3021 41.0005 19.2889C37.9195 19.295 34.932 18.2329 32.5487 16.284C30.1654 14.3352 28.5341 11.6208 27.9338 8.60454L26.4481 1L55.5529 1.15209Z" stroke="white" stroke-width="2" stroke-miterlimit="10" stroke-linecap="square"/>
<path d="M66.4469 8.41425L51.8945 15.6766" stroke="white" stroke-width="2" stroke-miterlimit="10" stroke-linecap="square"/>
<path d="M70.1054 19.2891H48.2769" stroke="white" stroke-width="2" stroke-miterlimit="10" stroke-linecap="square"/>
<path d="M33.7229 62.8629H42.8277C44.2725 62.8629 45.6581 62.29 46.6797 61.2703C47.7014 60.2507 48.2753 58.8677 48.2753 57.4256C48.2803 56.7084 48.1431 55.9973 47.8716 55.3332C47.6001 54.6691 47.1996 54.0652 46.6933 53.5563C46.1869 53.0474 45.5847 52.6435 44.9212 52.3678C44.2578 52.0922 43.5463 51.9503 42.8277 51.9504H39.0182C37.5734 51.9504 36.1878 51.3775 35.1661 50.3578C34.1445 49.3381 33.5706 47.9552 33.5706 46.5131C33.5703 45.7861 33.7161 45.0664 33.9993 44.3966C34.2826 43.7268 34.6975 43.1205 35.2196 42.6136C35.7417 42.1067 36.3604 41.7094 37.039 41.4453C37.7176 41.1811 38.4424 41.0555 39.1706 41.0759H48.2753" stroke="white" stroke-width="2" stroke-miterlimit="10" stroke-linecap="square"/>
<path d="M41 37.4637V41.0758" stroke="white" stroke-width="2" stroke-miterlimit="10" stroke-linecap="square"/>
<path d="M41 62.863V66.4751" stroke="white" stroke-width="2" stroke-miterlimit="10" stroke-linecap="square"/>
</svg>
