<svg width="80" height="80" viewBox="0 0 80 80" fill="none" xmlns="http://www.w3.org/2000/svg">
<path d="M11.3667 43.3333H5V33.6333C5.00961 31.7489 5.5775 29.9096 6.63194 28.3477C7.68637 26.7858 9.18005 25.5715 10.9243 24.8581C12.6685 24.1447 14.585 23.9643 16.4318 24.3396C18.2785 24.7149 19.9726 25.6291 21.3 26.9667C21.8383 27.495 22.3086 28.0885 22.7 28.7333" stroke="white" stroke-width="2" stroke-miterlimit="10"/>
<path d="M14.5333 17.7333C18.0495 17.7333 20.9 14.8829 20.9 11.3667C20.9 7.85045 18.0495 5 14.5333 5C11.0171 5 8.16663 7.85045 8.16663 11.3667C8.16663 14.8829 11.0171 17.7333 14.5333 17.7333Z" stroke="white" stroke-width="2" stroke-miterlimit="10"/>
<path d="M46.3667 43.2H27.2667L30.4667 27.2667H49.5334L46.3667 43.2Z" stroke="white" stroke-width="2" stroke-miterlimit="10"/>
<path d="M30.4667 43.1667H14.5333" stroke="white" stroke-width="2" stroke-miterlimit="10"/>
<path d="M57.3 60.5C57.6995 59.8507 58.169 59.2471 58.7 58.7C60.0275 57.3624 61.7216 56.4482 63.5683 56.0729C65.415 55.6976 67.3315 55.8781 69.0758 56.5915C70.82 57.3048 72.3137 58.5192 73.3681 60.081C74.4225 61.6429 74.9904 63.4822 75 65.3667V75H68.6334" stroke="white" stroke-width="2" stroke-miterlimit="10"/>
<path d="M65.4666 49.5333C68.9829 49.5333 71.8333 46.6829 71.8333 43.1667C71.8333 39.6504 68.9829 36.8 65.4666 36.8C61.9504 36.8 59.1 39.6504 59.1 43.1667C59.1 46.6829 61.9504 49.5333 65.4666 49.5333Z" stroke="white" stroke-width="2" stroke-miterlimit="10"/>
<path d="M33.6333 75H52.7333L49.5333 59.1H30.4667L33.6333 75Z" stroke="white" stroke-width="2" stroke-miterlimit="10"/>
<path d="M49.5333 75H65.4667" stroke="white" stroke-width="2" stroke-miterlimit="10"/>
</svg>
