<svg width="24" height="25" viewBox="0 0 24 25" fill="none" xmlns="http://www.w3.org/2000/svg">
<path d="M22.8472 6.44184C23.0078 5.89931 22.8472 5.5 22.0747 5.5H19.5182C18.8672 5.5 18.5677 5.84288 18.4071 6.22483C18.4071 6.22483 17.105 9.39757 15.2648 11.4549C14.6701 12.0495 14.3967 12.2405 14.0712 12.2405C13.9106 12.2405 13.6632 12.0495 13.6632 11.5069V6.44184C13.6632 5.7908 13.4809 5.5 12.9427 5.5H8.92361C8.51562 5.5 8.27257 5.80382 8.27257 6.08594C8.27257 6.70226 9.19271 6.84549 9.28819 8.5816V12.349C9.28819 13.1736 9.14062 13.3255 8.8151 13.3255C7.94705 13.3255 5.83767 10.1398 4.58767 6.49392C4.33594 5.78646 4.08854 5.5 3.43316 5.5H0.876736C0.147569 5.5 0 5.84288 0 6.22483C0 6.90191 0.868056 10.2656 4.0408 14.7101C6.15451 17.7439 9.13194 19.3889 11.8403 19.3889C13.4679 19.3889 13.6675 19.0243 13.6675 18.395C13.6675 15.4957 13.52 15.2222 14.3359 15.2222C14.7135 15.2222 15.3646 15.4132 16.8837 16.8759C18.6198 18.612 18.9062 19.3889 19.8785 19.3889H22.4349C23.1641 19.3889 23.533 19.0243 23.3203 18.3038C22.8342 16.7891 19.5486 13.6727 19.401 13.4644C19.0234 12.9783 19.1319 12.7613 19.401 12.3273C19.4054 12.3229 22.526 7.93056 22.8472 6.44184Z" fill="white"/>
</svg>
