<svg width="24" height="25" viewBox="0 0 24 25" fill="none" xmlns="http://www.w3.org/2000/svg">
<path d="M22.54 6.92C22.4212 6.44541 22.1793 6.01057 21.8387 5.65941C21.498 5.30824 21.0708 5.05318 20.6 4.92C18.88 4.5 12 4.5 12 4.5C12 4.5 5.12002 4.5 3.40002 4.96C2.92927 5.09318 2.502 5.34824 2.16137 5.69941C1.82074 6.05057 1.57881 6.48541 1.46002 6.96C1.14524 8.70556 0.991258 10.4763 1.00002 12.25C0.988802 14.037 1.14279 15.8213 1.46002 17.58C1.59098 18.0398 1.83833 18.4581 2.17817 18.7945C2.518 19.1308 2.93884 19.3738 3.40002 19.5C5.12002 19.96 12 19.96 12 19.96C12 19.96 18.88 19.96 20.6 19.5C21.0708 19.3668 21.498 19.1118 21.8387 18.7606C22.1793 18.4094 22.4212 17.9746 22.54 17.5C22.8524 15.7676 23.0063 14.0103 23 12.25C23.0112 10.463 22.8573 8.6787 22.54 6.92Z" stroke="white" stroke-width="2" stroke-linecap="round" stroke-linejoin="round"/>
<path d="M9.75 15.52L15.5 12.25L9.75 8.98V15.52Z" stroke="white" stroke-width="2" stroke-linecap="round" stroke-linejoin="round"/>
</svg>
